<?xml version="1.0" encoding="UTF-8"?>
<svg width="33px" height="28px" viewBox="0 0 33 28" version="1.1" xmlns="http://www.w3.org/2000/svg" xmlns:xlink="http://www.w3.org/1999/xlink">
    <!-- Generator: Sketch 44.1 (41455) - http://www.bohemiancoding.com/sketch -->
    <title>check icon</title>
    <desc>Created with Sketch.</desc>
    <defs>
        <polygon id="path-1" points="32.35188 0.0004 32.35188 27.668 0.000396 27.668 0.000396 0.0004"></polygon>
    </defs>
    <g id="Welcome" stroke="none" stroke-width="1" fill="none" fill-rule="evenodd">
        <g id="about" transform="translate(-565.000000, -950.000000)">
            <g id="2nd-section" transform="translate(0.000000, 730.000000)">
                <g id="check-icon" transform="translate(565.000000, 220.000000)">
                    <mask id="mask-2" fill="white">
                        <use xlink:href="#path-1"></use>
                    </mask>
                    <g id="Clip-2"></g>
                    <path d="M31.884996,6.15106667 L16.048956,22.1470667 C15.738756,22.4604 15.366516,22.6190667 14.940156,22.6190667 C14.512476,22.6190667 14.142876,22.4604 13.832676,22.1470667 L5.466516,13.6977333 C5.154996,13.3844 4.999236,13.0097333 4.999236,12.5764 C4.999236,12.1470667 5.154996,11.7710667 5.466516,11.4564 L7.607556,9.2964 C7.917756,8.98173333 8.287356,8.8244 8.715036,8.8244 C9.141396,8.8244 9.513636,8.98173333 9.823836,9.2964 L14.940156,14.4644 L27.526356,1.74973333 C27.839196,1.4364 28.207476,1.27906667 28.636476,1.27906667 C29.065476,1.27906667 29.435076,1.4364 29.745276,1.74973333 L31.884996,3.90973333 C32.196516,4.22573333 32.352276,4.6004 32.352276,5.0284 C32.352276,5.46173333 32.196516,5.83906667 31.884996,6.15106667 M27.002316,15.1910667 C27.258396,15.2924 27.391716,15.4844 27.391716,15.7604 L27.391716,22.0110667 C27.391716,23.5684 26.841276,24.9017333 25.746996,26.0097333 C24.652716,27.1137333 23.330076,27.6684 21.789636,27.6684 L5.603796,27.6684 C4.060716,27.6684 2.738076,27.1137333 1.643796,26.0097333 C0.548196,24.9017333 0.000396,23.5684 0.000396,22.0110667 L0.000396,5.6604 C0.000396,4.10306667 0.548196,2.76706667 1.643796,1.66306667 C2.738076,0.555066667 4.060716,0.0004 5.603796,0.0004 L21.789636,0.0004 C22.605396,0.0004 23.364396,0.163066667 24.062676,0.4924 C24.260676,0.5844 24.376836,0.7324 24.415116,0.9444 C24.452076,1.16573333 24.393996,1.3564 24.238236,1.51373333 L23.283876,2.47506667 C23.154516,2.61106667 23.010636,2.67373333 22.837716,2.67373333 C22.799436,2.67373333 22.742676,2.65906667 22.664796,2.6324 C22.366476,2.55373333 22.074756,2.5164 21.789636,2.5164 L5.603796,2.5164 C4.744476,2.5164 4.011876,2.8244 3.403356,3.4404 C2.796156,4.05373333 2.488596,4.79373333 2.488596,5.6604 L2.488596,22.0110667 C2.488596,22.8737333 2.796156,23.6150667 3.403356,24.2324 C4.011876,24.8444 4.744476,25.1550667 5.603796,25.1550667 L21.789636,25.1550667 C22.643676,25.1550667 23.380236,24.8444 23.986116,24.2324 C24.594636,23.6150667 24.900876,22.8737333 24.900876,22.0110667 L24.900876,17.0177333 C24.900876,16.8470667 24.958956,16.7057333 25.076436,16.5857333 L26.321196,15.3270667 C26.453196,15.1964 26.598396,15.1337333 26.769996,15.1337333 C26.847876,15.1337333 26.924436,15.1510667 27.002316,15.1910667" id="Fill-1" fill="#6A6A6A" mask="url(#mask-2)"></path>
                </g>
            </g>
        </g>
    </g>
</svg>