<?xml version="1.0" encoding="UTF-8"?>
<svg width="178px" height="47px" viewBox="0 0 178 47" version="1.1" xmlns="http://www.w3.org/2000/svg" xmlns:xlink="http://www.w3.org/1999/xlink">
    <!-- Generator: Sketch 44.1 (41455) - http://www.bohemiancoding.com/sketch -->
    <title>opendev logo</title>
    <desc>Created with Sketch.</desc>
    <defs>
        <polygon id="path-1" points="0 0.251007179 0 46.7965812 46.4642824 46.7965812 46.4642824 0.251007179 0 0.251007179"></polygon>
    </defs>
    <g id="Welcome" stroke="none" stroke-width="1" fill="none" fill-rule="evenodd">
        <g id="about" transform="translate(-81.000000, -9.000000)">
            <g id="nav-bar" transform="translate(81.000000, 9.000000)">
                <g id="Group">
                    <g id="opendev-logo">
                        <path d="M38.630752,26.5793285 C38.630752,27.0130038 38.2783765,27.3655918 37.8454579,27.3655918 C37.4121367,27.3655918 37.0597611,27.0130038 37.0597611,26.5793285 C37.0597611,26.1456533 37.4121367,25.7930653 37.8454579,25.7930653 C38.2783765,25.7930653 38.630752,26.1456533 38.630752,26.5793285 M37.8454579,34.2346038 C38.2783765,34.2346038 38.630752,34.5871918 38.630752,35.020867 C38.630752,35.4553491 38.2783765,35.8079371 37.8454579,35.8079371 C37.4121367,35.8079371 37.0597611,35.4553491 37.0597611,35.020867 C37.0597611,34.5871918 37.4121367,34.2346038 37.8454579,34.2346038 M3.76087421,25.3432533 C3.45481086,25.036655 3.45481086,24.5372226 3.76127692,24.2302209 C3.9090733,24.0817627 4.1060009,23.9998687 4.31581538,23.9998687 C4.52562986,23.9998687 4.72296018,24.0817627 4.87075656,24.2302209 C5.17722262,24.5372226 5.17722262,25.036655 4.87115928,25.3432533 C4.57395566,25.640573 4.0572724,25.640573 3.76087421,25.3432533 M10.5490371,19.1479508 L10.5490371,19.1479508 C10.2530416,19.4456738 9.73474751,19.4456738 9.43915475,19.1479508 C9.13268869,18.8413525 9.13268869,18.34192 9.43834932,18.0357251 C9.59178371,17.8820226 9.79314118,17.805373 9.99409593,17.805373 C10.1954534,17.805373 10.3960054,17.8820226 10.5490371,18.0353217 C10.8551005,18.34192 10.8551005,18.8413525 10.5490371,19.1479508" id="Fill-1" fill="#FEFEFE"></path>
                        <path d="M33.0301149,30.1514003 L29.4636715,30.1514003 C27.4972145,30.1514003 25.8980335,28.5490209 25.8980335,26.5795303 C25.8980335,24.6096362 27.4972145,23.0068533 29.4636715,23.0068533 L33.0301149,23.0068533 L33.0301149,30.1514003 Z" id="Fill-3" fill="#FEFEFE"></path>
                        <path d="M37.8455787,35.8079371 C38.2784973,35.8079371 38.6308729,35.4553491 38.6308729,35.020867 C38.6308729,34.5871918 38.2784973,34.2346038 37.8455787,34.2346038 C37.4118548,34.2346038 37.0598819,34.5871918 37.0598819,35.020867 C37.0598819,35.4553491 37.4118548,35.8079371 37.8455787,35.8079371" id="Fill-5" fill="#FEFEFE"></path>
                        <path d="M4.87075656,24.2301402 C4.72296018,24.0816821 4.52562986,24.0001915 4.31581538,24.0001915 C4.1060009,24.0001915 3.9090733,24.0816821 3.76127692,24.2301402 C3.45481086,24.5371419 3.45481086,25.0365744 3.76087421,25.3431726 C4.0572724,25.6404923 4.57395566,25.6404923 4.87115928,25.3431726 C5.17722262,25.0365744 5.17722262,24.5371419 4.87075656,24.2301402" id="Fill-7" fill="#FEFEFE"></path>
                        <path d="M9.99417647,17.805373 C9.792819,17.805373 9.59146154,17.8820226 9.43842986,18.0357251 C9.13276923,18.34192 9.13276923,18.8413525 9.43923529,19.1479508 C9.73482805,19.4456738 10.2531222,19.4456738 10.5487149,19.1479508 L10.5491176,19.1479508 C10.855181,18.8413525 10.855181,18.34192 10.5491176,18.0353217 C10.396086,17.8820226 10.1955339,17.805373 9.99417647,17.805373" id="Fill-9" fill="#FEFEFE"></path>
                        <path d="M37.8455787,25.7929846 C37.4118548,25.7929846 37.0598819,26.1455726 37.0598819,26.5792479 C37.0598819,27.0129231 37.4118548,27.3655111 37.8455787,27.3655111 C38.2784973,27.3655111 38.6308729,27.0129231 38.6308729,26.5792479 C38.6308729,26.1455726 38.2784973,25.7929846 37.8455787,25.7929846" id="Fill-11" fill="#FEFEFE"></path>
                        <path d="M16.1304647,26.5793285 C16.1304647,24.6094345 14.5304783,23.007055 12.5640213,23.007055 C10.5975643,23.007055 8.99798054,24.6094345 8.99798054,26.5793285 C8.99798054,28.5492226 10.5975643,30.1511986 12.5640213,30.1511986 C14.5304783,30.1511986 16.1304647,28.5492226 16.1304647,26.5793285" id="Fill-13" fill="#FEFEFE"></path>
                        <g id="Group-17" transform="translate(0.000000, 0.152492)">
                            <mask id="mask-2" fill="white">
                                <use xlink:href="#path-1"></use>
                            </mask>
                            <g id="Clip-16"></g>
                            <path d="M7.60833213,26.4268362 C7.60833213,23.6896397 9.83172127,21.461961 12.5641421,21.461961 C15.2965629,21.461961 17.519952,23.6896397 17.519952,26.4268362 C17.519952,29.1640328 15.2965629,31.3909046 12.5641421,31.3909046 C9.83172127,31.3909046 7.60833213,29.1640328 7.60833213,26.4268362 M34.4198842,22.1582619 L34.4198842,30.6950072 C34.4198842,31.0794653 34.1089882,31.3909046 33.7247982,31.3909046 L29.4636715,31.3909046 C26.7312507,31.3909046 24.5082643,29.1640328 24.5082643,26.4268362 C24.5082643,23.6896397 26.7312507,21.461961 29.4636715,21.461961 L33.7247982,21.461961 C34.1089882,21.461961 34.4198842,21.7738038 34.4198842,22.1582619 M40.4062416,14.5703576 L38.5404633,14.5719713 L38.5404633,24.3730311 C39.3978434,24.6651063 40.0204407,25.4707337 40.0204407,26.4268362 C40.0204407,27.6282174 39.0446624,28.6052978 37.8453774,28.6052978 C36.6456896,28.6052978 35.670314,27.6282174 35.670314,26.4268362 C35.670314,25.4707337 36.2929113,24.6651063 37.1506941,24.3726277 L37.1506941,13.8764773 C37.1506941,13.4924226 37.46159,13.1805798 37.8449747,13.1805798 L39.7107529,13.1789662 L39.7107529,11.3918209 L34.4198842,11.3918209 L34.4198842,17.9844909 C34.4198842,18.3693525 34.1089882,18.6807918 33.7247982,18.6807918 L29.4189701,18.6807918 C25.1550244,18.6807918 21.6864407,22.1554379 21.6864407,26.4268362 C21.6864407,30.6978311 25.1550244,34.1720738 29.4189701,34.1720738 L35.7943502,34.1720738 C36.0863186,33.3135986 36.8905403,32.6895097 37.8453774,32.6895097 C39.0446624,32.6895097 40.0204407,33.6673969 40.0204407,34.8683747 C40.0204407,36.0701593 39.0446624,37.0476431 37.8453774,37.0476431 C36.8901376,37.0476431 36.0859158,36.4235542 35.7943502,35.5642721 L29.4189701,35.5642721 C25.6233819,35.5642721 22.3650154,33.2288807 20.9921602,29.9192328 C20.5479656,31.0233901 19.8802643,32.0573525 18.9882507,32.9509251 C17.2098615,34.7324226 14.8745176,35.6227679 12.5383683,35.6227679 C10.202219,35.6227679 7.8664724,34.7324226 6.08808326,32.9509251 C4.39345882,31.2529354 3.45674389,29.00912 3.4245267,26.6168465 C3.1873276,26.5095371 2.96704253,26.3643063 2.77776652,26.1746995 C1.93005158,25.3250995 1.93005158,23.9433901 2.77816923,23.0933867 C3.59930498,22.2708157 5.03216471,22.2696055 5.85370317,23.0933867 C6.70101538,23.9433901 6.70101538,25.3250995 5.85410588,26.1746995 L5.85370317,26.1746995 C5.56495656,26.4643542 5.20694299,26.6559781 4.81912851,26.748361 C4.8835629,28.7198687 5.67046787,30.5634926 7.07070769,31.9665832 C10.0854317,34.986173 14.9904995,34.9873832 18.006029,31.9665832 C21.0199475,28.9465901 21.0199475,24.0317388 18.006029,21.0113422 C16.4382597,19.4420431 14.3264226,18.6505354 12.1368615,18.7651063 C12.0700109,19.2096738 11.8726805,19.6381046 11.531581,19.9798003 C11.1212145,20.3916909 10.5747303,20.6180089 9.99401538,20.6180089 C9.41330045,20.6180089 8.86681629,20.3916909 8.45604706,19.9798003 C7.60873484,19.1302003 7.60873484,17.7480875 8.45564434,16.8984875 C9.30497014,16.0500978 10.6846715,16.0488875 11.531581,16.8984875 C11.6793774,17.0465422 11.7921376,17.2143644 11.8879837,17.3890448 C14.5342235,17.1958072 17.0966986,18.1321422 18.9882507,20.0274038 C19.8649611,20.9052431 20.5229973,21.9198414 20.9671919,23.0026174 C22.3235357,19.6566619 25.5980109,17.2889969 29.4189701,17.2889969 L33.0301149,17.2889969 L33.0301149,10.6963268 C33.0301149,10.3114653 33.3406081,10.000026 33.7247982,10.000026 L40.4058389,10.000026 C40.790029,10.000026 41.1005222,10.3114653 41.1005222,10.6963268 L41.1005222,13.8744602 C41.1005222,14.2585149 40.790029,14.5703576 40.4062416,14.5703576 M23.2320606,0.251007179 C10.4015629,0.251007179 -0.000161085973,10.670508 -0.000161085973,23.5238345 C-0.000161085973,36.377161 10.4015629,46.7966619 23.2320606,46.7966619 C36.0629611,46.7966619 46.4642824,36.377161 46.4642824,23.5238345 C46.4642824,10.670508 36.0629611,0.251007179 23.2320606,0.251007179" id="Fill-15" fill="#FEFEFE" mask="url(#mask-2)"></path>
                            <path d="M25.8980738,26.4268362 C25.8980738,28.3967303 27.4972548,29.9987063 29.4637118,29.9987063 L33.0301552,29.9987063 L33.0301552,22.8545627 L29.4637118,22.8545627 C27.4972548,22.8545627 25.8980738,24.4569422 25.8980738,26.4268362" id="Fill-18" fill="#FEFEFE" mask="url(#mask-2)"></path>
                        </g>
                        <path d="M65.1128027,23.0537306 C65.1128027,26.447693 62.3723276,29.2086913 59.0032145,29.2086913 C55.6155765,29.2086913 52.8593955,26.447693 52.8593955,23.0537306 C52.8593955,19.6791323 55.6155765,16.9326571 59.0032145,16.9326571 C62.3723276,16.9326571 65.1128027,19.6791323 65.1128027,23.0537306 M59.0032145,14.3201169 C54.1960063,14.3201169 50.2848389,18.2377169 50.2848389,23.0537306 C50.2848389,27.8697443 54.1960063,31.7873443 59.0032145,31.7873443 C63.8108253,31.7873443 67.7219928,27.8697443 67.7219928,23.0537306 C67.7219928,18.2377169 63.8108253,14.3201169 59.0032145,14.3201169" id="Fill-20" fill="#FEFEFE"></path>
                        <path d="M84.8488145,23.0537306 C84.8488145,26.447693 82.1075339,29.2086913 78.7388235,29.2086913 C75.3515882,29.2086913 72.5950045,26.447693 72.5950045,23.0537306 C72.5950045,19.6791323 75.3515882,16.9326571 78.7388235,16.9326571 C82.1075339,16.9326571 84.8488145,19.6791323 84.8488145,23.0537306 M78.7388235,14.3201169 C73.9312127,14.3201169 70.0200452,18.2377169 70.0200452,23.0722879 L70.0200452,37.4747426 C70.0200452,37.9059973 70.3095973,38.1964588 70.7405023,38.1964588 L71.8407195,38.1964588 C72.2724299,38.1964588 72.5619819,37.9059973 72.5619819,37.4747426 L72.5619819,29.1925545 C74.1998235,30.8453614 76.4336833,31.7873443 78.7388235,31.7873443 C83.5460317,31.7873443 87.4571991,27.8697443 87.4571991,23.0537306 C87.4571991,18.2377169 83.5460317,14.3201169 78.7388235,14.3201169" id="Fill-22" fill="#FEFEFE"></path>
                        <path d="M134.582337,29.6971508 C130.925685,29.6971508 127.950427,26.7170961 127.950427,23.0544568 C127.950427,19.3724533 130.925685,16.3770687 134.582337,16.3770687 C138.257513,16.3770687 141.247269,19.3724533 141.247269,23.0544568 C141.247269,26.7170961 138.257513,29.6971508 134.582337,29.6971508 M142.579852,8.43294564 L141.480038,8.43294564 C141.334658,8.43294564 141.280291,8.48740718 141.280291,8.63263795 L141.280291,18.2404602 L140.586816,17.4896978 C139.031129,15.8070379 136.842373,14.8424636 134.582337,14.8424636 C130.062264,14.8424636 126.385074,18.5264841 126.385074,23.0544568 C126.385074,27.582026 130.062264,31.2652397 134.582337,31.2652397 C139.102409,31.2652397 142.779599,27.582026 142.779599,23.0544568 L142.757852,22.4299644 L142.779599,22.4299644 L142.779599,8.63263795 C142.779599,8.48740718 142.726038,8.43294564 142.579852,8.43294564" id="Fill-24" fill="#FEFEFE"></path>
                        <path d="M92.2414122,21.7312027 C92.8044077,18.4921532 95.5283715,16.798601 97.9643941,16.798601 C100.75239,16.798601 103.202105,18.9096916 103.718788,21.7312027 L92.2414122,21.7312027 Z M97.9643941,14.3199959 C93.14591,14.3199959 89.5126158,17.9455207 89.5126158,22.7530626 C89.5126158,27.1938968 92.7613172,31.7876267 98.1975661,31.7876267 C100.721381,31.7876267 103.083304,30.7790797 104.86572,28.9273874 C105.129498,28.6248232 105.124666,28.2577121 104.867331,27.9648301 L104.193991,27.1232985 C104.012367,26.8901224 103.816648,26.8324335 103.691403,26.8263822 C103.396616,26.7949156 103.232308,26.9829087 103.192037,27.0252677 C102.320159,27.8288779 100.511566,29.1750865 98.1975661,29.1750865 C95.2045887,29.1750865 92.7738014,27.0309156 92.2414122,23.9427446 L105.795186,23.9427446 C106.246227,23.9427446 106.515643,23.6728574 106.515643,23.220625 L106.514838,23.1944027 C106.247838,17.9693224 102.731733,14.3199959 97.9643941,14.3199959 L97.9643941,14.3199959 Z" id="Fill-26" fill="#FEFEFE"></path>
                        <path d="M148.114565,21.7914735 C148.666687,18.1707897 151.681814,16.2767385 154.375171,16.2767385 C157.463592,16.2767385 160.169031,18.6468239 160.6688,21.789053 L160.742497,22.253388 L148.04409,22.253388 L148.114565,21.7914735 Z M154.608746,31.2649573 C156.988389,31.2649573 159.217416,30.3128889 160.884253,28.5838359 C160.97285,28.4821744 160.97285,28.4075419 160.871366,28.2909538 L160.194,27.4441778 C160.13923,27.3731761 160.093321,27.3477607 160.067547,27.3465504 C160.022443,27.3437265 159.996669,27.368335 159.95519,27.4102906 C159.020488,28.2711863 157.099941,29.6972718 154.608746,29.6972718 C151.307692,29.6972718 148.636886,27.3058051 148.114565,23.8823932 L148.043687,23.4208821 L162.205963,23.4208821 C162.368257,23.4208821 162.40571,23.3829607 162.40571,23.2207863 C162.154013,18.2958496 158.851348,14.8421812 154.375171,14.8421812 C149.853891,14.8421812 146.444909,18.2430017 146.444909,22.7532239 C146.444909,26.9374838 149.498696,31.2649573 154.608746,31.2649573 L154.608746,31.2649573 Z" id="Fill-28" fill="#FEFEFE"></path>
                        <path d="M170.55215,30.9984185 L171.251666,30.9984185 C171.42443,30.9984185 171.462286,30.8963535 171.476783,30.8576253 L177.912571,15.1234851 C177.914584,15.1190475 177.916195,15.1142065 177.917403,15.1101723 C177.907738,15.1093655 177.896059,15.1089621 177.883575,15.1089621 L176.450715,15.1089621 C176.278353,15.1089621 176.238887,15.2146578 176.226,15.2489484 L170.916607,28.7937347 L165.647082,15.2549997 C165.631779,15.2146578 165.593118,15.1089621 165.419951,15.1089621 L163.953666,15.1089621 C163.941987,15.1089621 163.931114,15.1093655 163.921046,15.1097689 C163.923865,15.1186441 163.926684,15.1279227 163.930711,15.1384116 L170.323005,30.8471364 C170.341933,30.8963535 170.379385,30.9984185 170.55215,30.9984185" id="Fill-30" fill="#FEFEFE"></path>
                        <path d="M122.325265,31.5204424 C122.756572,31.5204424 123.04693,31.2299809 123.04693,30.7987262 L123.04693,21.3849484 C123.04693,17.4947809 119.887631,14.3263296 115.994989,14.321892 L115.914446,14.3198749 C112.033079,14.3198749 108.874989,17.4895364 108.874989,21.3849484 L108.874989,30.7987262 C108.874989,31.2299809 109.164943,31.5204424 109.596251,31.5204424 L110.729491,31.5204424 C111.160396,31.5204424 111.450351,31.2299809 111.450351,30.7987262 L111.450351,21.3849484 C111.450351,18.8938373 113.47359,16.8662544 115.961161,16.8658509 C118.448731,16.8662544 120.471971,18.8938373 120.471971,21.3849484 L120.471971,30.7987262 C120.471971,31.2299809 120.761925,31.5204424 121.192428,31.5204424 L122.325265,31.5204424 Z" id="Fill-32" fill="#FEFEFE"></path>
                    </g>
                </g>
            </g>
        </g>
    </g>
</svg>